<?xml version="1.0" encoding="UTF-8" standalone="no"?>
<svg
   width="272.86325"
   zoomAndPan="magnify"
   viewBox="0 0 204.64744 349.55676"
   height="466.07568"
   preserveAspectRatio="xMidYMid meet"
   version="1.0"
   id="svg4"
   sodipodi:docname="Prelude - Leaf .svg"
   inkscape:version="1.1.2 (0a00cf5339, 2022-02-04)"
   xmlns:inkscape="http://www.inkscape.org/namespaces/inkscape"
   xmlns:sodipodi="http://sodipodi.sourceforge.net/DTD/sodipodi-0.dtd"
   xmlns="http://www.w3.org/2000/svg"
   xmlns:svg="http://www.w3.org/2000/svg">
  <defs
     id="defs8" />
  <sodipodi:namedview
     id="namedview6"
     pagecolor="#ffffff"
     bordercolor="#666666"
     borderopacity="1.0"
     inkscape:pageshadow="2"
     inkscape:pageopacity="0.0"
     inkscape:pagecheckerboard="0"
     showgrid="false"
     inkscape:zoom="0.696875"
     inkscape:cx="231.74888"
     inkscape:cy="220.98655"
     inkscape:window-width="1920"
     inkscape:window-height="1163"
     inkscape:window-x="0"
     inkscape:window-y="0"
     inkscape:window-maximized="1"
     inkscape:current-layer="svg4" />
  <path
     fill="#2f4f4f"
     d="m 154.3742,336.91797 c 1.39844,3.02735 5.125,4.42578 8.15234,3.02735 3.02735,-1.39454 4.42188,-5.1211 3.02735,-8.14844 -1.39844,-3.02735 -4.66016,-4.19141 -7.6836,-3.25781 -0.23437,0 -0.23437,0 -0.46875,0.23046 -3.02734,1.39844 -4.42187,5.125 -3.02734,8.14844 z M 101.7531,169.27344 c -1.39453,-0.46484 -2.792961,-0.46484 -4.191401,0 -0.23047,0 -0.23047,0 -0.46485,0.23438 -3.02734,1.39843 -4.42187,5.12109 -3.02734,8.14843 0.69922,1.39844 1.86328,2.5625 3.49219,3.26172 1.63281,0.46485 3.261721,0.46485 4.656251,-0.23437 3.02734,-1.39844 4.42578,-5.1211 3.02734,-8.14844 -0.69531,-1.62891 -1.86328,-2.5625 -3.49219,-3.26172 z M 73.581229,96.859376 c -3.26172,1.16406 -4.65625,4.660154 -3.49219,7.917974 1.16406,3.26172 4.65625,4.65625 7.91406,3.49218 3.26172,-1.16406 4.65625,-4.65625 3.49219,-7.91406 -1.16406,-3.027344 -4.65625,-4.660154 -7.91406,-3.496094 z M 0.00309917,115.95313 C -0.23127083,80.097656 12.807789,43.773436 38.655449,8.148436 L 44.475759,-4.0000001e-6 46.569509,9.777346 c 5.35547,26.07812 35.16016,40.98047 66.828131,56.8125 29.57031,14.67187 60.07031,29.80468 75.20703,56.117184 16.76172,28.64063 20.48828,60.53907 10.71093,87.54688 -6.28906,17.23047 -17.69531,30.03516 -31.20312,35.16016 -0.23047,0.23046 -0.69922,0.23046 -0.92969,0.46484 l -4.1914,1.39844 -1.39844,-4.19141 C 143.89764,190.46485 107.34295,137.375 82.194509,116.1875 c -0.46484,0.23047 -0.92969,0.46485 -1.16406,0.46485 -7.6836,3.02734 -16.29688,-0.92969 -19.09375,-8.61328 -3.02344,-7.6836 0.93359,-16.300794 8.61719,-19.093754 7.68359,-3.02735 16.29687,0.92968 19.09375,8.61328 1.6289,4.191404 1.16406,8.847654 -0.9336,12.574224 25.613281,22.12109 61.003911,73.11328 79.632811,125.73437 9.54688,-4.89062 17.92969,-15.36719 22.81641,-28.40625 9.08203,-24.44922 5.35547,-53.78516 -10.01172,-80.09766 C 167.18279,103.37891 137.84295,88.945316 109.67107,74.742186 79.635919,59.839846 50.995289,45.402346 40.749199,20.722656 c -57.51172,85.453124 -23.05078,150.648444 -5.1211,175.093754 26.3086,36.09375 69.152351,58.67969 98.257821,53.08984 -8.14844,-18.85937 -18.39453,-38.65234 -30.73438,-59.14062 -6.753901,1.6289 -13.972651,-1.63281 -16.996091,-8.15235 -3.4961,-7.44921 -0.23438,-16.29687 7.21484,-19.78906 3.49219,-1.6289 7.683601,-1.86328 11.410161,-0.46484 3.72656,1.39453 6.7539,4.1914 8.38281,7.68359 2.5625,5.58594 1.39844,11.875 -2.5625,16.06641 30.96875,50.99219 49.82813,100.8164 51.45703,134.8125 4.89063,0.69922 9.08203,3.72656 11.41016,8.38281 3.49219,7.44922 0.23437,16.30078 -7.21875,19.79297 -0.23047,0.23047 -0.69531,0.23047 -0.92969,0.46484 -7.21875,2.79297 -15.60156,-0.46484 -18.85937,-7.68359 -3.26172,-7.45313 -0.23438,-16.06641 6.98437,-19.55859 -0.69922,-17.46485 -6.28516,-39.58204 -16.29687,-64.26563 C 104.3156,264.73828 57.745289,240.98828 28.409349,200.94141 10.249199,175.5625 0.23356917,146.22266 0.00309917,115.95313 Z m 0,0"
     fill-opacity="1"
     fill-rule="nonzero"
     id="path2" />
</svg>
