<?xml version="1.0" encoding="UTF-8" standalone="no"?>
<svg
   width="1633.0361"
   zoomAndPan="magnify"
   viewBox="0 0 1224.7771 349.54667"
   height="466.06223"
   preserveAspectRatio="xMidYMid meet"
   version="1.0"
   id="svg69"
   sodipodi:docname="Prelude logo.svg"
   inkscape:version="1.1.2 (0a00cf5339, 2022-02-04)"
   xmlns:inkscape="http://www.inkscape.org/namespaces/inkscape"
   xmlns:sodipodi="http://sodipodi.sourceforge.net/DTD/sodipodi-0.dtd"
   xmlns="http://www.w3.org/2000/svg"
   xmlns:svg="http://www.w3.org/2000/svg">
  <sodipodi:namedview
     id="namedview71"
     pagecolor="#ffffff"
     bordercolor="#666666"
     borderopacity="1.0"
     inkscape:pageshadow="2"
     inkscape:pageopacity="0.0"
     inkscape:pagecheckerboard="0"
     showgrid="false"
     inkscape:zoom="0.696875"
     inkscape:cx="828.69955"
     inkscape:cy="209.50673"
     inkscape:window-width="1920"
     inkscape:window-height="1163"
     inkscape:window-x="0"
     inkscape:window-y="0"
     inkscape:window-maximized="1"
     inkscape:current-layer="svg69" />
  <defs
     id="defs7">
    <g
       id="g2" />
    <clipPath
       id="8b907d2c33">
      <path
         d="M 97,247.17578 H 303 V 597 H 97 Z m 0,0"
         clip-rule="nonzero"
         id="path4" />
    </clipPath>
  </defs>
  <g
     clip-path="url(#8b907d2c33)"
     id="g11"
     transform="translate(-97.762521,-247.25)">
    <path
       fill="#2f4f4f"
       d="m 252.13281,584.16016 c 1.39844,3.02734 5.1211,4.42578 8.14844,3.02734 3.02734,-1.39844 4.42578,-5.12109 3.02734,-8.14844 -1.39843,-3.02734 -4.65625,-4.1914 -7.68359,-3.26172 -0.23438,0 -0.23438,0 -0.46484,0.23438 -3.02735,1.39453 -4.42579,5.12109 -3.02735,8.14844 z M 199.51172,416.51953 c -1.39453,-0.46484 -2.79297,-0.46484 -4.19141,0 -0.23047,0 -0.23047,0 -0.46484,0.23438 -3.02735,1.39453 -4.42188,5.12109 -3.02735,8.14843 0.69922,1.39844 1.86329,2.5625 3.49219,3.25782 1.63281,0.46875 3.26172,0.46875 4.65625,-0.23047 3.02735,-1.39844 4.42578,-5.125 3.02735,-8.14844 -0.69922,-1.63281 -1.86329,-2.5625 -3.49219,-3.26172 z m -28.17188,-72.41016 c -3.26172,1.16407 -4.65625,4.65625 -3.49218,7.91407 1.16406,3.26172 4.65625,4.66015 7.91406,3.49218 3.26172,-1.16406 4.66015,-4.65625 3.49219,-7.91406 -1.16407,-3.02734 -4.65625,-4.65625 -7.91407,-3.49219 z M 97.765625,363.19922 C 97.53125,327.34375 110.57031,291.02344 136.41406,255.39844 l 5.82031,-8.14844 2.09766,9.77734 c 5.35547,26.07813 35.15625,40.98047 66.82031,56.8125 29.57032,14.66797 60.07422,29.80469 75.20703,56.11328 16.76563,28.63672 20.48829,60.53516 10.71094,87.54688 -6.28515,17.22656 -17.69531,30.03516 -31.19922,35.15625 -0.23437,0.23437 -0.69922,0.23437 -0.93359,0.46484 l -4.19141,1.39844 -1.39453,-4.19141 c -17.69531,-52.62109 -54.25,-105.70703 -79.39844,-126.89453 -0.46484,0.23438 -0.92968,0.46485 -1.16406,0.46485 -7.68359,3.02734 -16.29687,-0.92969 -19.08984,-8.61328 -3.02735,-7.6836 0.92969,-16.30079 8.61328,-19.09375 7.68359,-3.02735 16.29687,0.93359 19.09375,8.61718 1.62891,4.19141 1.16406,8.84766 -0.93359,12.57032 25.61328,22.12109 61.0039,73.10937 79.6289,125.73046 9.54688,-4.88671 17.92969,-15.36718 22.82031,-28.40625 C 298,430.25781 294.27734,400.92187 278.91016,374.60937 264.9375,350.62891 235.60156,336.19141 207.42969,321.98828 177.39453,307.08984 148.75391,292.65234 138.51172,267.97266 81,353.42187 115.46094,418.61719 133.38672,443.0625 c 26.3125,36.08984 69.15234,58.67578 98.25781,53.08594 C 223.49609,477.28906 213.25,457.5 200.91016,437.00781 c -6.75391,1.63281 -13.97266,-1.6289 -16.9961,-8.14844 -3.49219,-7.44921 -0.23437,-16.29687 7.21485,-19.78906 3.49218,-1.6289 7.68359,-1.86328 11.41015,-0.46484 3.72656,1.39453 6.75391,4.1875 8.38281,7.68359 2.5586,5.58594 1.39454,11.8711 -2.5625,16.0625 30.96875,50.99219 49.82813,100.81641 51.45704,134.8125 4.89062,0.69922 9.08203,3.72656 11.41015,8.38281 3.49219,7.44922 0.23047,16.29688 -7.21875,19.78907 -0.23437,0.23437 -0.69922,0.23437 -0.93359,0.46484 -7.21485,2.79688 -15.59766,-0.46484 -18.85938,-7.68359 -3.25781,-7.44922 -0.23047,-16.0625 6.98828,-19.5586 -0.69921,-17.46093 -6.28906,-39.57812 -16.30078,-64.26172 -32.82812,7.6836 -79.39453,-16.0625 -108.73437,-56.11328 -18.16016,-25.3789 -28.171876,-54.71484 -28.402345,-84.98437 z m 0,0"
       fill-opacity="1"
       fill-rule="nonzero"
       id="path9" />
  </g>
  <g
     fill="#2f4f4f"
     fill-opacity="1"
     id="g19"
     transform="translate(-97.762521,-247.25)">
    <g
       transform="translate(335.2226,513.05341)"
       id="g17">
      <g
         id="g15">
        <path
           d="m 19.828125,0 v -157.28125 c 12.769531,-1.375 30.78125,-2.0625 54.03125,-2.0625 19.144531,0 32.363285,3.46094 39.656255,10.375 7.30078,6.91797 10.95312,19.875 10.95312,38.875 0,18.992188 -3.53906,31.945312 -10.60937,38.859375 -7.0625,6.917969 -19.636724,10.375 -37.718755,10.375 -12.46875,0 -24.554687,-0.6875 -36.25,-2.0625 V 0 Z m 20.0625,-78.1875 H 73.625 c 11.707031,-0.15625 19.722656,-2.394531 24.046875,-6.71875 4.332035,-4.332031 6.500005,-12.726562 6.500005,-25.1875 0,-12.46875 -2.20313,-20.90625 -6.60938,-25.3125 -4.40625,-4.40625 -12.386719,-6.60937 -23.9375,-6.60937 -16.5625,0 -27.808594,0.0781 -33.734375,0.23437 z m 0,0"
           id="path13" />
      </g>
    </g>
  </g>
  <g
     fill="#2f4f4f"
     fill-opacity="1"
     id="g27"
     transform="translate(-97.762521,-247.25)">
    <g
       transform="translate(477.66559,513.05341)"
       id="g25">
      <g
         id="g23">
        <path
           d="M 130.60937,0 H 109.1875 L 95.28125,-49.234375 c -1.96875,-5.925781 -4.625,-10.144531 -7.96875,-12.65625 -3.34375,-2.507813 -7.679688,-3.765625 -13,-3.765625 -5.324219,0 -11.824219,-0.03516 -19.5,-0.109375 C 47.144531,-65.835938 42.09375,-65.875 39.65625,-65.875 V 0 H 19.828125 v -157.28125 c 12.769531,-1.375 30.851563,-2.0625 54.25,-2.0625 18.695313,0 31.843755,3.23047 39.437505,9.6875 7.60156,6.46094 11.40625,18.35156 11.40625,35.67187 0,12.92969 -2.2461,22.585942 -6.73438,28.968755 -4.48047,6.375 -11.88672,10.246094 -22.21875,11.609375 v 1.140625 c 4.25,1.0625 8.125,3.53125 11.625,7.40625 3.5,3.875 6.08203,8.933594 7.75,15.171875 z M 39.65625,-82.96875 H 73.625 c 11.851562,-0.15625 19.984375,-2.285156 24.390625,-6.390625 4.406255,-4.101563 6.609375,-11.929685 6.609375,-23.484375 0,-11.39453 -2.20312,-19.10156 -6.609375,-23.125 -4.40625,-4.03125 -12.539063,-6.04687 -24.390625,-6.04687 -16.71875,0 -28.042969,0.0781 -33.96875,0.23437 z m 0,0"
           id="path21" />
      </g>
    </g>
  </g>
  <g
     fill="#2f4f4f"
     fill-opacity="1"
     id="g35"
     transform="translate(-97.762521,-247.25)">
    <g
       transform="translate(626.48987,513.05341)"
       id="g33">
      <g
         id="g31">
        <path
           d="m 115.34375,-16.640625 0.90625,15.5 c -13.98047,0.917969 -36.46875,1.375 -67.46875,1.375 -9.273438,0 -16.605469,-2.46875 -22,-7.40625 -5.398438,-4.945313 -8.167969,-11.597656 -8.3125,-19.953125 v -103.03125 c 0.144531,-8.36328 2.914062,-15.01562 8.3125,-19.95312 5.394531,-4.9375 12.726562,-7.40625 22,-7.40625 31,0 53.48828,0.46093 67.46875,1.375 l -0.90625,15.71875 H 52.203125 c -9.117187,0 -13.671875,5.01562 -13.671875,15.04687 v 34.1875 h 67.92188 V -75 H 38.53125 v 43.09375 c 0,10.179688 4.554688,15.265625 13.671875,15.265625 z m 0,0"
           id="path29" />
      </g>
    </g>
  </g>
  <g
     fill="#2f4f4f"
     fill-opacity="1"
     id="g43"
     transform="translate(-97.762521,-247.25)">
    <g
       transform="translate(762.09574,513.05341)"
       id="g41">
      <g
         id="g39">
        <path
           d="m 39.203125,-157.28125 v 125.375 c 0,10.023438 5.09375,15.03125 15.28125,15.03125 h 56.750005 l 0.92187,15.5 C 98.9375,-0.300781 78.648438,0.234375 51.296875,0.234375 30.015625,0.234375 19.375,-9.644531 19.375,-29.40625 v -127.875 z m 0,0"
           id="path37" />
      </g>
    </g>
  </g>
  <g
     fill="#2f4f4f"
     fill-opacity="1"
     id="g51"
     transform="translate(-97.762521,-247.25)">
    <g
       transform="translate(887.21802,513.05341)"
       id="g49">
      <g
         id="g47">
        <path
           d="m 133.125,-157.28125 v 97.109375 c 0,22.9375 -4.25781,39.199219 -12.76562,48.78125 C 111.84766,-1.816406 97.332031,2.96875 76.8125,2.96875 55.539062,2.96875 40.535156,-1.816406 31.796875,-11.390625 23.054688,-20.972656 18.6875,-37.234375 18.6875,-60.171875 V -157.28125 H 38.75 v 97.109375 c 0,16.867187 2.734375,28.605469 8.203125,35.21875 5.476563,6.605469 15.128906,9.90625 28.953125,9.90625 13.675781,0 23.285156,-3.300781 28.82813,-9.90625 5.55078,-6.613281 8.32812,-18.351563 8.32812,-35.21875 v -97.109375 z m 0,0"
           id="path45" />
      </g>
    </g>
  </g>
  <g
     fill="#2f4f4f"
     fill-opacity="1"
     id="g59"
     transform="translate(-97.762521,-247.25)">
    <g
       transform="translate(1046.9817,513.05341)"
       id="g57">
      <g
         id="g55">
        <path
           d="m 19.828125,0 v -157.28125 c 19.757813,-1.375 38.453125,-2.0625 56.078125,-2.0625 22.644531,0 38.52344,5.89063 47.64063,17.67188 9.12499,11.78125 13.68749,32.79296 13.68749,63.031245 0,30.242187 -4.5625,51.25 -13.68749,63.03125 C 114.42969,-3.835938 98.550781,2.046875 75.90625,2.046875 58.28125,2.046875 39.585938,1.363281 19.828125,0 Z m 20.0625,-141.5625 V -15.953125 C 53.566406,-15.648438 65.570312,-15.5 75.90625,-15.5 c 15.039062,0 25.52344,-4.59375 31.45313,-13.78125 5.92578,-9.195312 8.89062,-25.648438 8.89062,-49.359375 0,-23.707035 -2.96484,-40.195315 -8.89062,-49.468745 -5.92969,-9.26954 -16.414068,-13.90625 -31.45313,-13.90625 -9.730469,0 -21.734375,0.15234 -36.015625,0.45312 z m 0,0"
           id="path53" />
      </g>
    </g>
  </g>
  <g
     fill="#2f4f4f"
     fill-opacity="1"
     id="g67"
     transform="translate(-97.762521,-247.25)">
    <g
       transform="translate(1206.2896,513.05341)"
       id="g65">
      <g
         id="g63">
        <path
           d="m 115.34375,-16.640625 0.90625,15.5 c -13.98047,0.917969 -36.46875,1.375 -67.46875,1.375 -9.273438,0 -16.605469,-2.46875 -22,-7.40625 -5.398438,-4.945313 -8.167969,-11.597656 -8.3125,-19.953125 v -103.03125 c 0.144531,-8.36328 2.914062,-15.01562 8.3125,-19.95312 5.394531,-4.9375 12.726562,-7.40625 22,-7.40625 31,0 53.48828,0.46093 67.46875,1.375 l -0.90625,15.71875 H 52.203125 c -9.117187,0 -13.671875,5.01562 -13.671875,15.04687 v 34.1875 h 67.92188 V -75 H 38.53125 v 43.09375 c 0,10.179688 4.554688,15.265625 13.671875,15.265625 z m 0,0"
           id="path61" />
      </g>
    </g>
  </g>
</svg>
